# Blender 3.3.1
# www.blender.org
o circle_outer_night
v -1.113328 -0.066817 0.502318
v -1.248498 -0.066817 0.515631
v -1.378474 -0.066817 0.555059
v -1.498260 -0.066817 0.619086
v -1.603253 -0.066817 0.705252
v -1.689419 -0.066817 0.810245
v -1.753446 -0.066817 0.930031
v -1.792875 -0.066817 1.060007
v -1.806188 -0.066817 1.195177
v -1.792875 -0.066817 1.330347
v -1.753446 -0.066817 1.460323
v -1.689419 -0.066817 1.580110
v -1.603253 -0.066817 1.685103
v -1.498260 -0.066817 1.771268
v -1.378474 -0.066817 1.835296
v -1.248498 -0.066817 1.874724
v -1.113328 -0.066817 1.888037
v -0.978158 -0.066817 1.874724
v -0.848182 -0.066817 1.835296
v -0.728396 -0.066817 1.771268
v -0.623402 -0.066817 1.685103
v -0.537236 -0.066817 1.580110
v -0.473210 -0.066817 1.460323
v -0.433782 -0.066817 1.330347
v -0.420469 -0.066817 1.195177
v -0.433782 -0.066817 1.060007
v -0.473210 -0.066817 0.930031
v -0.537236 -0.066817 0.810245
v -0.623402 -0.066817 0.705252
v -0.728396 -0.066817 0.619086
v -0.848182 -0.066817 0.555059
v -0.978158 -0.066817 0.515631
v -1.113328 -0.066817 0.609162
v -1.227654 -0.066817 0.620422
v -1.337586 -0.066817 0.653770
v -1.438900 -0.066817 0.707924
v -1.527703 -0.066817 0.780802
v -1.600582 -0.066817 0.869605
v -1.654735 -0.066817 0.970919
v -1.688083 -0.066817 1.080851
v -1.699343 -0.066817 1.195177
v -1.688083 -0.066817 1.309503
v -1.654735 -0.066817 1.419435
v -1.600582 -0.066817 1.520750
v -1.527703 -0.066817 1.609552
v -1.438900 -0.066817 1.682431
v -1.337586 -0.066817 1.736584
v -1.227654 -0.066817 1.769932
v -1.113328 -0.066817 1.781193
v -0.999002 -0.066817 1.769932
v -0.889070 -0.066817 1.736584
v -0.787755 -0.066817 1.682431
v -0.698952 -0.066817 1.609552
v -0.626074 -0.066817 1.520750
v -0.571921 -0.066817 1.419435
v -0.538573 -0.066817 1.309503
v -0.527313 -0.066817 1.195177
v -0.538573 -0.066817 1.080851
v -0.571921 -0.066817 0.970919
v -0.626074 -0.066817 0.869605
v -0.698952 -0.066817 0.780802
v -0.787755 -0.066817 0.707924
v -0.889070 -0.066817 0.653770
v -0.999002 -0.066817 0.620422
v -1.181240 -0.066817 0.505657
v -1.314453 -0.066817 0.532155
v -1.439938 -0.066817 0.584132
v -1.552871 -0.066817 0.659592
v -1.648913 -0.066817 0.755634
v -0.660334 -0.066817 0.823415
v -1.776351 -0.066817 0.994051
v -1.802849 -0.066817 1.127265
v -1.802849 -0.066817 1.263089
v -1.776351 -0.066817 1.396303
v -1.724373 -0.066817 1.521788
v -1.648913 -0.066817 1.634721
v -1.552871 -0.066817 1.730762
v -1.439938 -0.066817 1.806222
v -1.696519 -0.066817 1.252616
v -1.181240 -0.066817 1.884698
v -1.045416 -0.066817 1.884698
v -0.912203 -0.066817 1.858200
v -0.786718 -0.066817 1.806222
v -0.673784 -0.066817 1.730762
v -0.577742 -0.066817 1.634721
v -0.502283 -0.066817 1.521788
v -0.450306 -0.066817 1.396303
v -0.423808 -0.066817 1.263089
v -0.423808 -0.066817 1.127265
v -0.450306 -0.066817 0.994051
v -0.502283 -0.066817 0.868567
v -0.577742 -0.066817 0.755634
v -0.673784 -0.066817 0.659592
v -0.786718 -0.066817 0.584132
v -1.045416 -0.066817 0.505657
v -1.113328 -0.066817 0.555740
v -1.238076 -0.066817 0.568027
v -1.358030 -0.066817 0.604414
v -1.468580 -0.066817 0.663505
v -1.565478 -0.066817 0.743027
v -1.645000 -0.066817 0.839925
v -1.704091 -0.066817 0.950475
v -1.740479 -0.066817 1.070429
v -1.752765 -0.066817 1.195177
v -1.740479 -0.066817 1.319925
v -1.704091 -0.066817 1.439879
v -1.645000 -0.066817 1.550430
v -1.565478 -0.066817 1.647327
v -1.468580 -0.066817 1.726850
v -1.358030 -0.066817 1.785940
v -1.238076 -0.066817 1.822328
v -1.113328 -0.066817 1.834615
v -0.988580 -0.066817 1.822328
v -0.943218 -0.066817 1.755957
v -0.758076 -0.066817 1.726850
v -0.741565 -0.066817 1.648171
v -0.581655 -0.066817 1.550430
v -0.596511 -0.066817 1.471422
v -0.486177 -0.066817 1.319925
v -0.473891 -0.066817 1.195177
v -0.486177 -0.066817 1.070429
v -0.522565 -0.066817 0.950475
v -0.581655 -0.066817 0.839925
v -0.661177 -0.066817 0.743027
v -0.758076 -0.066817 0.663505
v -0.868626 -0.066817 0.604414
v -0.988580 -0.066817 0.568027
v -1.485090 -0.066817 1.648171
v -1.724373 -0.066817 0.868567
v -1.389572 -0.066817 1.711994
v -1.283438 -0.066817 1.755957
v -1.696519 -0.066817 1.137738
v -1.170767 -0.066817 1.778368
v -0.741565 -0.066817 0.742183
v -0.837084 -0.066817 0.678360
v -1.055889 -0.066817 1.778368
v -1.566322 -0.066817 1.566940
v -0.868626 -0.066817 1.785940
v -0.837084 -0.066817 1.711994
v -1.674107 -0.066817 1.365288
v -0.661177 -0.066817 1.647327
v -1.170767 -0.066817 0.611986
v -0.660334 -0.066817 1.566940
v -1.055889 -0.066817 0.611986
v -1.283438 -0.066817 0.634398
v -1.314453 -0.066817 1.858200
v -0.522565 -0.066817 1.439879
v -1.389572 -0.066817 0.678360
v -0.912203 -0.066817 0.532155
v -0.552549 -0.066817 1.365288
v -1.485090 -0.066817 0.742183
v -0.530137 -0.066817 1.252616
v -1.630145 -0.066817 1.471422
v -1.566322 -0.066817 0.823415
v -0.530137 -0.066817 1.137738
v -1.630145 -0.066817 0.918933
v -0.552549 -0.066817 1.025067
v -0.943218 -0.066817 0.634398
v -1.674107 -0.066817 1.025067
v -0.596511 -0.066817 0.918933
v -1.607617 -0.066817 1.600830
v -1.050653 -0.066817 1.831533
v -1.414755 -0.066817 1.759108
v -0.811901 -0.066817 1.759108
v -1.176003 -0.066817 1.831533
v -0.619038 -0.066817 1.600830
v -0.927710 -0.066817 1.807078
v -0.501427 -0.066817 1.380795
v -0.707675 -0.066817 1.689467
v -0.476972 -0.066817 1.132501
v -0.549397 -0.066817 1.496605
v -0.549397 -0.066817 0.893750
v -1.176003 -0.066817 0.558821
v -0.476972 -0.066817 1.257853
v -0.707675 -0.066817 0.700888
v -1.414755 -0.066817 0.631246
v -0.501427 -0.066817 1.009559
v -1.050653 -0.066817 0.558821
v -1.607617 -0.066817 0.789524
v -0.619038 -0.066817 0.789524
v -1.298946 -0.066817 0.583276
v -1.725229 -0.066817 1.009559
v -0.811901 -0.066817 0.631246
v -1.518981 -0.066817 0.700888
v -1.749684 -0.066817 1.257853
v -0.927710 -0.066817 0.583276
v -1.677259 -0.066817 0.893750
v -1.677259 -0.066817 1.496605
v -1.749684 -0.066817 1.132501
v -1.518981 -0.066817 1.689467
v -1.725229 -0.066817 1.380795
v -1.298946 -0.066817 1.807078
vn -0.0000 1.0000 -0.0000
vt 0.000000 0.000000
vt 0.000000 0.000000
vt 0.000000 0.000000
vt 0.000000 0.000000
vt 0.000000 0.000000
vt 0.000000 0.000000
vt 0.000000 0.000000
vt 0.000000 0.000000
vt 0.000000 0.000000
vt 0.000000 0.000000
vt 0.000000 0.000000
vt 0.000000 0.000000
vt 0.000000 0.000000
vt 0.000000 0.000000
vt 0.000000 0.000000
vt 0.000000 0.000000
vt 0.000000 0.000000
vt 0.000000 0.000000
vt 0.000000 0.000000
vt 0.000000 0.000000
vt 0.000000 0.000000
vt 0.000000 0.000000
vt 0.000000 0.000000
vt 0.000000 0.000000
vt 0.000000 0.000000
vt 0.000000 0.000000
vt 0.000000 0.000000
vt 0.000000 0.000000
vt 0.000000 0.000000
vt 0.000000 0.000000
vt 0.000000 0.000000
vt 0.000000 0.000000
vt 0.000000 0.000000
vt 0.000000 0.000000
vt 0.000000 0.000000
vt 0.000000 0.000000
vt 0.000000 0.000000
vt 0.000000 0.000000
vt 0.000000 0.000000
vt 0.000000 0.000000
vt 0.000000 0.000000
vt 0.000000 0.000000
vt 0.000000 0.000000
vt 0.000000 0.000000
vt 0.000000 0.000000
vt 0.000000 0.000000
vt 0.000000 0.000000
vt 0.000000 0.000000
vt 0.000000 0.000000
vt 0.000000 0.000000
vt 0.000000 0.000000
vt 0.000000 0.000000
vt 0.000000 0.000000
vt 0.000000 0.000000
vt 0.000000 0.000000
vt 0.000000 0.000000
vt 0.000000 0.000000
vt 0.000000 0.000000
vt 0.000000 0.000000
vt 0.000000 0.000000
vt 0.000000 0.000000
vt 0.000000 0.000000
vt 0.000000 0.000000
vt 0.000000 0.000000
vt 0.000000 0.000000
vt 0.000000 0.000000
vt 0.000000 0.000000
vt 0.000000 0.000000
vt 0.000000 0.000000
vt 0.000000 0.000000
vt 0.000000 0.000000
vt 0.000000 0.000000
vt 0.000000 0.000000
vt 0.000000 0.000000
vt 0.000000 0.000000
vt 0.000000 0.000000
vt 0.000000 0.000000
vt 0.000000 0.000000
vt 0.000000 0.000000
vt 0.000000 0.000000
vt 0.000000 0.000000
vt 0.000000 0.000000
vt 0.000000 0.000000
vt 0.000000 0.000000
vt 0.000000 0.000000
vt 0.000000 0.000000
vt 0.000000 0.000000
vt 0.000000 0.000000
vt 0.000000 0.000000
vt 0.000000 0.000000
vt 0.000000 0.000000
vt 0.000000 0.000000
vt 0.000000 0.000000
vt 0.000000 0.000000
vt 0.000000 0.000000
vt 0.000000 0.000000
vt 0.000000 0.000000
vt 0.000000 0.000000
vt 0.000000 0.000000
vt 0.000000 0.000000
vt 0.000000 0.000000
vt 0.000000 0.000000
vt 0.000000 0.000000
vt 0.000000 0.000000
vt 0.000000 0.000000
vt 0.000000 0.000000
vt 0.000000 0.000000
vt 0.000000 0.000000
vt 0.000000 0.000000
vt 0.000000 0.000000
vt 0.000000 0.000000
vt 0.000000 0.000000
vt 0.000000 0.000000
vt 0.000000 0.000000
vt 0.000000 0.000000
vt 0.000000 0.000000
vt 0.000000 0.000000
vt 0.000000 0.000000
vt 0.000000 0.000000
vt 0.000000 0.000000
vt 0.000000 0.000000
vt 0.000000 0.000000
vt 0.000000 0.000000
vt 0.000000 0.000000
vt 0.000000 0.000000
vt 0.000000 0.000000
vt 0.000000 0.000000
vt 0.000000 0.000000
vt 0.000000 0.000000
vt 0.000000 0.000000
vt 0.000000 0.000000
vt 0.000000 0.000000
vt 0.000000 0.000000
vt 0.000000 0.000000
vt 0.000000 0.000000
vt 0.000000 0.000000
vt 0.000000 0.000000
vt 0.000000 0.000000
vt 0.000000 0.000000
vt 0.000000 0.000000
vt 0.000000 0.000000
vt 0.000000 0.000000
vt 0.000000 0.000000
vt 0.000000 0.000000
vt 0.000000 0.000000
vt 0.000000 0.000000
vt 0.000000 0.000000
vt 0.000000 0.000000
vt 0.000000 0.000000
vt 0.000000 0.000000
vt 0.000000 0.000000
vt 0.000000 0.000000
vt 0.000000 0.000000
vt 0.000000 0.000000
vt 0.000000 0.000000
vt 0.000000 0.000000
vt 0.000000 0.000000
vt 0.000000 0.000000
vt 0.000000 0.000000
vt 0.000000 0.000000
vt 0.000000 0.000000
vt 0.000000 0.000000
vt 0.000000 0.000000
vt 0.000000 0.000000
vt 0.000000 0.000000
vt 0.000000 0.000000
vt 0.000000 0.000000
vt 0.000000 0.000000
vt 0.000000 0.000000
vt 0.000000 0.000000
vt 0.000000 0.000000
vt 0.000000 0.000000
vt 0.000000 0.000000
vt 0.000000 0.000000
vt 0.000000 0.000000
vt 0.000000 0.000000
vt 0.000000 0.000000
vt 0.000000 0.000000
vt 0.000000 0.000000
vt 0.000000 0.000000
vt 0.000000 0.000000
vt 0.000000 0.000000
vt 0.000000 0.000000
vt 0.000000 0.000000
vt 0.000000 0.000000
vt 0.000000 0.000000
vt 0.000000 0.000000
vt 0.000000 0.000000
vt 0.000000 0.000000
vt 0.000000 0.000000
vt 0.000000 0.000000
vt 0.000000 0.000000
s 0
f 12/12/1 76/76/1 161/161/1 107/107/1
f 76/76/1 13/13/1 108/108/1 161/161/1
f 161/161/1 108/108/1 45/45/1 137/137/1
f 107/107/1 161/161/1 137/137/1 44/44/1
f 17/17/1 81/81/1 162/162/1 112/112/1
f 81/81/1 18/18/1 113/113/1 162/162/1
f 162/162/1 113/113/1 50/50/1 136/136/1
f 112/112/1 162/162/1 136/136/1 49/49/1
f 14/14/1 78/78/1 163/163/1 109/109/1
f 78/78/1 15/15/1 110/110/1 163/163/1
f 163/163/1 110/110/1 47/47/1 130/130/1
f 109/109/1 163/163/1 130/130/1 46/46/1
f 19/19/1 83/83/1 164/164/1 138/138/1
f 83/83/1 20/20/1 115/115/1 164/164/1
f 164/164/1 115/115/1 52/52/1 139/139/1
f 138/138/1 164/164/1 139/139/1 51/51/1
f 16/16/1 80/80/1 165/165/1 111/111/1
f 80/80/1 17/17/1 112/112/1 165/165/1
f 165/165/1 112/112/1 49/49/1 133/133/1
f 111/111/1 165/165/1 133/133/1 48/48/1
f 21/21/1 85/85/1 166/166/1 141/141/1
f 85/85/1 22/22/1 117/117/1 166/166/1
f 166/166/1 117/117/1 54/54/1 143/143/1
f 141/141/1 166/166/1 143/143/1 53/53/1
f 18/18/1 82/82/1 167/167/1 113/113/1
f 82/82/1 19/19/1 138/138/1 167/167/1
f 167/167/1 138/138/1 51/51/1 114/114/1
f 113/113/1 167/167/1 114/114/1 50/50/1
f 23/23/1 87/87/1 168/168/1 147/147/1
f 87/87/1 24/24/1 119/119/1 168/168/1
f 168/168/1 119/119/1 56/56/1 150/150/1
f 147/147/1 168/168/1 150/150/1 55/55/1
f 20/20/1 84/84/1 169/169/1 115/115/1
f 84/84/1 21/21/1 141/141/1 169/169/1
f 169/169/1 141/141/1 53/53/1 116/116/1
f 115/115/1 169/169/1 116/116/1 52/52/1
f 25/25/1 89/89/1 170/170/1 120/120/1
f 89/89/1 26/26/1 121/121/1 170/170/1
f 170/170/1 121/121/1 58/58/1 155/155/1
f 120/120/1 170/170/1 155/155/1 57/57/1
f 22/22/1 86/86/1 171/171/1 117/117/1
f 86/86/1 23/23/1 147/147/1 171/171/1
f 171/171/1 147/147/1 55/55/1 118/118/1
f 117/117/1 171/171/1 118/118/1 54/54/1
f 27/27/1 91/91/1 172/172/1 122/122/1
f 91/91/1 28/28/1 123/123/1 172/172/1
f 172/172/1 123/123/1 60/60/1 160/160/1
f 122/122/1 172/172/1 160/160/1 59/59/1
f 1/1/1 65/65/1 173/173/1 96/96/1
f 65/65/1 2/2/1 97/97/1 173/173/1
f 173/173/1 97/97/1 34/34/1 142/142/1
f 96/96/1 173/173/1 142/142/1 33/33/1
f 24/24/1 88/88/1 174/174/1 119/119/1
f 88/88/1 25/25/1 120/120/1 174/174/1
f 174/174/1 120/120/1 57/57/1 152/152/1
f 119/119/1 174/174/1 152/152/1 56/56/1
f 29/29/1 93/93/1 175/175/1 124/124/1
f 93/93/1 30/30/1 125/125/1 175/175/1
f 175/175/1 125/125/1 62/62/1 134/134/1
f 124/124/1 175/175/1 134/134/1 61/61/1
f 3/3/1 67/67/1 176/176/1 98/98/1
f 67/67/1 4/4/1 99/99/1 176/176/1
f 176/176/1 99/99/1 36/36/1 148/148/1
f 98/98/1 176/176/1 148/148/1 35/35/1
f 26/26/1 90/90/1 177/177/1 121/121/1
f 90/90/1 27/27/1 122/122/1 177/177/1
f 177/177/1 122/122/1 59/59/1 157/157/1
f 121/121/1 177/177/1 157/157/1 58/58/1
f 32/32/1 95/95/1 178/178/1 127/127/1
f 95/95/1 1/1/1 96/96/1 178/178/1
f 178/178/1 96/96/1 33/33/1 144/144/1
f 127/127/1 178/178/1 144/144/1 64/64/1
f 5/5/1 69/69/1 179/179/1 100/100/1
f 69/69/1 6/6/1 101/101/1 179/179/1
f 179/179/1 101/101/1 38/38/1 154/154/1
f 100/100/1 179/179/1 154/154/1 37/37/1
f 28/28/1 92/92/1 180/180/1 123/123/1
f 92/92/1 29/29/1 124/124/1 180/180/1
f 180/180/1 124/124/1 61/61/1 70/70/1
f 123/123/1 180/180/1 70/70/1 60/60/1
f 2/2/1 66/66/1 181/181/1 97/97/1
f 66/66/1 3/3/1 98/98/1 181/181/1
f 181/181/1 98/98/1 35/35/1 145/145/1
f 97/97/1 181/181/1 145/145/1 34/34/1
f 7/7/1 71/71/1 182/182/1 102/102/1
f 71/71/1 8/8/1 103/103/1 182/182/1
f 182/182/1 103/103/1 40/40/1 159/159/1
f 102/102/1 182/182/1 159/159/1 39/39/1
f 30/30/1 94/94/1 183/183/1 125/125/1
f 94/94/1 31/31/1 126/126/1 183/183/1
f 183/183/1 126/126/1 63/63/1 135/135/1
f 125/125/1 183/183/1 135/135/1 62/62/1
f 4/4/1 68/68/1 184/184/1 99/99/1
f 68/68/1 5/5/1 100/100/1 184/184/1
f 184/184/1 100/100/1 37/37/1 151/151/1
f 99/99/1 184/184/1 151/151/1 36/36/1
f 9/9/1 73/73/1 185/185/1 104/104/1
f 73/73/1 10/10/1 105/105/1 185/185/1
f 185/185/1 105/105/1 42/42/1 79/79/1
f 104/104/1 185/185/1 79/79/1 41/41/1
f 31/31/1 149/149/1 186/186/1 126/126/1
f 149/149/1 32/32/1 127/127/1 186/186/1
f 186/186/1 127/127/1 64/64/1 158/158/1
f 126/126/1 186/186/1 158/158/1 63/63/1
f 6/6/1 129/129/1 187/187/1 101/101/1
f 129/129/1 7/7/1 102/102/1 187/187/1
f 187/187/1 102/102/1 39/39/1 156/156/1
f 101/101/1 187/187/1 156/156/1 38/38/1
f 11/11/1 75/75/1 188/188/1 106/106/1
f 75/75/1 12/12/1 107/107/1 188/188/1
f 188/188/1 107/107/1 44/44/1 153/153/1
f 106/106/1 188/188/1 153/153/1 43/43/1
f 8/8/1 72/72/1 189/189/1 103/103/1
f 72/72/1 9/9/1 104/104/1 189/189/1
f 189/189/1 104/104/1 41/41/1 132/132/1
f 103/103/1 189/189/1 132/132/1 40/40/1
f 13/13/1 77/77/1 190/190/1 108/108/1
f 77/77/1 14/14/1 109/109/1 190/190/1
f 190/190/1 109/109/1 46/46/1 128/128/1
f 108/108/1 190/190/1 128/128/1 45/45/1
f 10/10/1 74/74/1 191/191/1 105/105/1
f 74/74/1 11/11/1 106/106/1 191/191/1
f 191/191/1 106/106/1 43/43/1 140/140/1
f 105/105/1 191/191/1 140/140/1 42/42/1
f 15/15/1 146/146/1 192/192/1 110/110/1
f 146/146/1 16/16/1 111/111/1 192/192/1
f 192/192/1 111/111/1 48/48/1 131/131/1
f 110/110/1 192/192/1 131/131/1 47/47/1
