# Blender 3.3.1
# www.blender.org
o circle_outer_day.005
v -0.000436 0.051000 -1.087846
v -0.214785 0.051000 -1.066734
v -0.420897 0.051000 -1.004211
v -0.610850 0.051000 -0.902679
v -0.777345 0.051000 -0.766039
v -0.913985 0.051000 -0.599544
v -1.015518 0.051000 -0.409590
v -1.078041 0.051000 -0.203479
v -1.099153 0.051000 0.010870
v -1.078041 0.051000 0.225219
v -1.015518 0.051000 0.431331
v -0.913985 0.051000 0.621285
v -0.777345 0.051000 0.787781
v -0.610850 0.051000 0.924420
v -0.420897 0.051000 1.025952
v -0.214785 0.051000 1.088475
v -0.000436 0.051000 1.109587
v 0.213913 0.051000 1.088475
v 0.420025 0.051000 1.025952
v 0.609978 0.051000 0.924420
v 0.776474 0.051000 0.787781
v 0.913113 0.051000 0.621285
v 1.014646 0.051000 0.431331
v 1.077169 0.051000 0.225219
v 1.098280 0.051000 0.010870
v 1.077169 0.051000 -0.203479
v 1.014646 0.051000 -0.409590
v 0.913113 0.051000 -0.599544
v 0.776474 0.051000 -0.766039
v 0.609978 0.051000 -0.902679
v 0.420025 0.051000 -1.004211
v 0.213913 0.051000 -1.066734
v -0.000436 0.051000 -0.921325
v -0.182298 0.051000 -0.903413
v -0.357171 0.051000 -0.850365
v -0.518336 0.051000 -0.764221
v -0.659597 0.051000 -0.648290
v -0.775528 0.051000 -0.507029
v -0.861672 0.051000 -0.345865
v -0.914719 0.051000 -0.170992
v -0.932631 0.051000 0.010870
v -0.914719 0.051000 0.192732
v -0.861672 0.051000 0.367606
v -0.775528 0.051000 0.528771
v -0.659597 0.051000 0.670032
v -0.518336 0.051000 0.785962
v -0.357171 0.051000 0.872106
v -0.182298 0.051000 0.925154
v -0.000436 0.051000 0.943066
v 0.181426 0.051000 0.925154
v 0.356299 0.051000 0.872106
v 0.517464 0.051000 0.785962
v 0.658726 0.051000 0.670032
v 0.774656 0.051000 0.528771
v 0.860800 0.051000 0.367606
v 0.913847 0.051000 0.192732
v 0.931759 0.051000 0.010870
v 0.913847 0.051000 -0.170992
v 0.860800 0.051000 -0.345865
v 0.774656 0.051000 -0.507029
v 0.658726 0.051000 -0.648290
v 0.517464 0.051000 -0.764221
v 0.356299 0.051000 -0.850365
v 0.181426 0.051000 -0.903413
v -0.108128 0.051000 -1.082551
v -0.518365 0.051000 -0.958107
v -0.849751 0.051000 -0.686145
v -1.051838 0.051000 -0.308069
v -1.093858 0.051000 0.118563
v -0.969414 0.051000 0.528800
v -0.697451 0.051000 0.860187
v -0.319375 0.051000 1.062273
v 0.107257 0.051000 1.104292
v 0.517493 0.051000 0.979848
v 0.848880 0.051000 0.707886
v 1.050966 0.051000 0.329810
v 1.092985 0.051000 -0.096822
v 0.968542 0.051000 -0.507059
v 0.696580 0.051000 -0.838445
v 0.318504 0.051000 -1.040531
v -0.000436 0.051000 -1.004585
v -0.091806 0.051000 -0.916832
v -0.389034 0.051000 -0.927288
v -0.439868 0.051000 -0.811248
v -0.718471 0.051000 -0.707165
v -0.721029 0.051000 -0.580505
v -0.938595 0.051000 -0.377727
v -0.892487 0.051000 -0.259730
v -1.015892 0.051000 0.010870
v -0.928139 0.051000 0.102241
v -0.938594 0.051000 0.399469
v -0.822555 0.051000 0.450303
v -0.718471 0.051000 0.728906
v -0.591812 0.051000 0.731464
v -0.389034 0.051000 0.949029
v -0.271037 0.051000 0.902922
v -0.000436 0.051000 1.026327
v 0.090934 0.051000 0.938574
v 0.388162 0.051000 0.949029
v 0.438996 0.051000 0.832990
v 0.717600 0.051000 0.728906
v 0.720158 0.051000 0.602247
v 0.937723 0.051000 0.399469
v 0.891615 0.051000 0.281471
v 1.015020 0.051000 0.010870
v 0.927267 0.051000 -0.080500
v 0.937723 0.051000 -0.377728
v 0.821683 0.051000 -0.428561
v 0.717600 0.051000 -0.707165
v 0.590940 0.051000 -0.709723
v 0.388162 0.051000 -0.927288
v 0.090934 0.051000 -0.916832
v 0.107257 0.051000 -1.082551
v -0.319375 0.051000 -1.040531
v -0.697451 0.051000 -0.838445
v -0.969414 0.051000 -0.507059
v -1.093858 0.051000 -0.096822
v -1.051838 0.051000 0.329810
v -0.849751 0.051000 0.707886
v -0.518365 0.051000 0.979848
v -0.108128 0.051000 1.104292
v 0.318503 0.051000 1.062272
v 0.696580 0.051000 0.860187
v 0.968542 0.051000 0.528800
v 1.092986 0.051000 0.118563
v 1.050966 0.051000 -0.308069
v 0.848880 0.051000 -0.686145
v 0.517493 0.051000 -0.958107
v -0.198541 0.051000 -0.985073
v -0.271037 0.051000 -0.881181
v -0.564593 0.051000 -0.833450
v -0.591812 0.051000 -0.709723
v -0.844756 0.051000 -0.553286
v -0.822555 0.051000 -0.428561
v -0.996380 0.051000 -0.187235
v -0.928139 0.051000 -0.080500
v -0.996380 0.051000 0.208976
v -0.892487 0.051000 0.281471
v -0.844756 0.051000 0.575028
v -0.721029 0.051000 0.602247
v -0.564593 0.051000 0.855191
v -0.439868 0.051000 0.832990
v -0.198541 0.051000 1.006815
v -0.091806 0.051000 0.938574
v 0.197670 0.051000 1.006815
v 0.270165 0.051000 0.902922
v 0.563721 0.051000 0.855191
v 0.590940 0.051000 0.731464
v 0.843885 0.051000 0.575028
v 0.821683 0.051000 0.450303
v 0.995508 0.051000 0.208976
v 0.927267 0.051000 0.102241
v 0.995508 0.051000 -0.187235
v 0.891615 0.051000 -0.259730
v 0.843885 0.051000 -0.553286
v 0.720158 0.051000 -0.580505
v 0.563721 0.051000 -0.833450
v 0.438996 0.051000 -0.811248
v 0.197670 0.051000 -0.985073
v 0.270165 0.051000 -0.881181
v 0.971291 0.051000 0.305640
v -0.972163 0.051000 0.305640
v 1.010126 0.051000 0.110402
v -0.895984 0.051000 0.489551
v 1.010126 0.051000 -0.088661
v -0.785390 0.051000 0.655066
v 0.971291 0.051000 -0.283900
v -0.644631 0.051000 0.795825
v 0.895112 0.051000 -0.467810
v -0.479117 0.051000 0.906419
v -0.099967 0.051000 -0.999691
v 0.784519 0.051000 -0.633325
v -0.295206 0.051000 0.982597
v -0.295206 0.051000 -0.960856
v 0.643760 0.051000 -0.774084
v -0.099967 0.051000 1.021433
v -0.479117 0.051000 -0.884678
v 0.478245 0.051000 -0.884678
v 0.099096 0.051000 1.021433
v -0.644631 0.051000 -0.774084
v 0.294334 0.051000 -0.960856
v 0.294334 0.051000 0.982597
v -0.785390 0.051000 -0.633325
v 0.099096 0.051000 -0.999691
v 0.478245 0.051000 0.906419
v -0.895984 0.051000 -0.467810
v 0.643760 0.051000 0.795825
v -0.972163 0.051000 -0.283900
v 0.784519 0.051000 0.655066
v -1.010998 0.051000 -0.088661
v 0.895112 0.051000 0.489551
v -1.010998 0.051000 0.110402
vn -0.0000 1.0000 -0.0000
vt 0.000000 0.000000
vt 0.000000 0.000000
vt 0.000000 0.000000
vt 0.000000 0.000000
vt 0.000000 0.000000
vt 0.000000 0.000000
vt 0.000000 0.000000
vt 0.000000 0.000000
vt 0.000000 0.000000
vt 0.000000 0.000000
vt 0.000000 0.000000
vt 0.000000 0.000000
vt 0.000000 0.000000
vt 0.000000 0.000000
vt 0.000000 0.000000
vt 0.000000 0.000000
vt 0.000000 0.000000
vt 0.000000 0.000000
vt 0.000000 0.000000
vt 0.000000 0.000000
vt 0.000000 0.000000
vt 0.000000 0.000000
vt 0.000000 0.000000
vt 0.000000 0.000000
vt 0.000000 0.000000
vt 0.000000 0.000000
vt 0.000000 0.000000
vt 0.000000 0.000000
vt 0.000000 0.000000
vt 0.000000 0.000000
vt 0.000000 0.000000
vt 0.000000 0.000000
vt 0.000000 0.000000
vt 0.000000 0.000000
vt 0.000000 0.000000
vt 0.000000 0.000000
vt 0.000000 0.000000
vt 0.000000 0.000000
vt 0.000000 0.000000
vt 0.000000 0.000000
vt 0.000000 0.000000
vt 0.000000 0.000000
vt 0.000000 0.000000
vt 0.000000 0.000000
vt 0.000000 0.000000
vt 0.000000 0.000000
vt 0.000000 0.000000
vt 0.000000 0.000000
vt 0.000000 0.000000
vt 0.000000 0.000000
vt 0.000000 0.000000
vt 0.000000 0.000000
vt 0.000000 0.000000
vt 0.000000 0.000000
vt 0.000000 0.000000
vt 0.000000 0.000000
vt 0.000000 0.000000
vt 0.000000 0.000000
vt 0.000000 0.000000
vt 0.000000 0.000000
vt 0.000000 0.000000
vt 0.000000 0.000000
vt 0.000000 0.000000
vt 0.000000 0.000000
vt 0.000000 0.000000
vt 0.000000 0.000000
vt 0.000000 0.000000
vt 0.000000 0.000000
vt 0.000000 0.000000
vt 0.000000 0.000000
vt 0.000000 0.000000
vt 0.000000 0.000000
vt 0.000000 0.000000
vt 0.000000 0.000000
vt 0.000000 0.000000
vt 0.000000 0.000000
vt 0.000000 0.000000
vt 0.000000 0.000000
vt 0.000000 0.000000
vt 0.000000 0.000000
vt 0.000000 0.000000
vt 0.000000 0.000000
vt 0.000000 0.000000
vt 0.000000 0.000000
vt 0.000000 0.000000
vt 0.000000 0.000000
vt 0.000000 0.000000
vt 0.000000 0.000000
vt 0.000000 0.000000
vt 0.000000 0.000000
vt 0.000000 0.000000
vt 0.000000 0.000000
vt 0.000000 0.000000
vt 0.000000 0.000000
vt 0.000000 0.000000
vt 0.000000 0.000000
vt 0.000000 0.000000
vt 0.000000 0.000000
vt 0.000000 0.000000
vt 0.000000 0.000000
vt 0.000000 0.000000
vt 0.000000 0.000000
vt 0.000000 0.000000
vt 0.000000 0.000000
vt 0.000000 0.000000
vt 0.000000 0.000000
vt 0.000000 0.000000
vt 0.000000 0.000000
vt 0.000000 0.000000
vt 0.000000 0.000000
vt 0.000000 0.000000
vt 0.000000 0.000000
vt 0.000000 0.000000
vt 0.000000 0.000000
vt 0.000000 0.000000
vt 0.000000 0.000000
vt 0.000000 0.000000
vt 0.000000 0.000000
vt 0.000000 0.000000
vt 0.000000 0.000000
vt 0.000000 0.000000
vt 0.000000 0.000000
vt 0.000000 0.000000
vt 0.000000 0.000000
vt 0.000000 0.000000
vt 0.000000 0.000000
vt 0.000000 0.000000
vt 0.000000 0.000000
vt 0.000000 0.000000
vt 0.000000 0.000000
vt 0.000000 0.000000
vt 0.000000 0.000000
vt 0.000000 0.000000
vt 0.000000 0.000000
vt 0.000000 0.000000
vt 0.000000 0.000000
vt 0.000000 0.000000
vt 0.000000 0.000000
vt 0.000000 0.000000
vt 0.000000 0.000000
vt 0.000000 0.000000
vt 0.000000 0.000000
vt 0.000000 0.000000
vt 0.000000 0.000000
vt 0.000000 0.000000
vt 0.000000 0.000000
vt 0.000000 0.000000
vt 0.000000 0.000000
vt 0.000000 0.000000
vt 0.000000 0.000000
vt 0.000000 0.000000
vt 0.000000 0.000000
vt 0.000000 0.000000
vt 0.000000 0.000000
vt 0.000000 0.000000
vt 0.000000 0.000000
vt 0.000000 0.000000
vt 0.000000 0.000000
vt 0.000000 0.000000
vt 0.000000 0.000000
vt 0.000000 0.000000
vt 0.000000 0.000000
vt 0.000000 0.000000
vt 0.000000 0.000000
vt 0.000000 0.000000
vt 0.000000 0.000000
vt 0.000000 0.000000
vt 0.000000 0.000000
vt 0.000000 0.000000
vt 0.000000 0.000000
vt 0.000000 0.000000
vt 0.000000 0.000000
vt 0.000000 0.000000
vt 0.000000 0.000000
vt 0.000000 0.000000
vt 0.000000 0.000000
vt 0.000000 0.000000
vt 0.000000 0.000000
vt 0.000000 0.000000
vt 0.000000 0.000000
vt 0.000000 0.000000
vt 0.000000 0.000000
vt 0.000000 0.000000
vt 0.000000 0.000000
vt 0.000000 0.000000
vt 0.000000 0.000000
vt 0.000000 0.000000
vt 0.000000 0.000000
vt 0.000000 0.000000
vt 0.000000 0.000000
vt 0.000000 0.000000
vt 0.000000 0.000000
s 0
f 24/24/1 151/151/1 161/161/1 76/76/1
f 76/76/1 161/161/1 103/103/1 23/23/1
f 161/161/1 104/104/1 55/55/1 103/103/1
f 151/151/1 56/56/1 104/104/1 161/161/1
f 11/11/1 91/91/1 162/162/1 118/118/1
f 118/118/1 162/162/1 137/137/1 10/10/1
f 162/162/1 138/138/1 42/42/1 137/137/1
f 91/91/1 43/43/1 138/138/1 162/162/1
f 25/25/1 105/105/1 163/163/1 125/125/1
f 125/125/1 163/163/1 151/151/1 24/24/1
f 163/163/1 152/152/1 56/56/1 151/151/1
f 105/105/1 57/57/1 152/152/1 163/163/1
f 12/12/1 139/139/1 164/164/1 70/70/1
f 70/70/1 164/164/1 91/91/1 11/11/1
f 164/164/1 92/92/1 43/43/1 91/91/1
f 139/139/1 44/44/1 92/92/1 164/164/1
f 26/26/1 153/153/1 165/165/1 77/77/1
f 77/77/1 165/165/1 105/105/1 25/25/1
f 165/165/1 106/106/1 57/57/1 105/105/1
f 153/153/1 58/58/1 106/106/1 165/165/1
f 13/13/1 93/93/1 166/166/1 119/119/1
f 119/119/1 166/166/1 139/139/1 12/12/1
f 166/166/1 140/140/1 44/44/1 139/139/1
f 93/93/1 45/45/1 140/140/1 166/166/1
f 27/27/1 107/107/1 167/167/1 126/126/1
f 126/126/1 167/167/1 153/153/1 26/26/1
f 167/167/1 154/154/1 58/58/1 153/153/1
f 107/107/1 59/59/1 154/154/1 167/167/1
f 14/14/1 141/141/1 168/168/1 71/71/1
f 71/71/1 168/168/1 93/93/1 13/13/1
f 168/168/1 94/94/1 45/45/1 93/93/1
f 141/141/1 46/46/1 94/94/1 168/168/1
f 28/28/1 155/155/1 169/169/1 78/78/1
f 78/78/1 169/169/1 107/107/1 27/27/1
f 169/169/1 108/108/1 59/59/1 107/107/1
f 155/155/1 60/60/1 108/108/1 169/169/1
f 15/15/1 95/95/1 170/170/1 120/120/1
f 120/120/1 170/170/1 141/141/1 14/14/1
f 170/170/1 142/142/1 46/46/1 141/141/1
f 95/95/1 47/47/1 142/142/1 170/170/1
f 2/2/1 129/129/1 171/171/1 65/65/1
f 65/65/1 171/171/1 81/81/1 1/1/1
f 171/171/1 82/82/1 33/33/1 81/81/1
f 129/129/1 34/34/1 82/82/1 171/171/1
f 29/29/1 109/109/1 172/172/1 127/127/1
f 127/127/1 172/172/1 155/155/1 28/28/1
f 172/172/1 156/156/1 60/60/1 155/155/1
f 109/109/1 61/61/1 156/156/1 172/172/1
f 16/16/1 143/143/1 173/173/1 72/72/1
f 72/72/1 173/173/1 95/95/1 15/15/1
f 173/173/1 96/96/1 47/47/1 95/95/1
f 143/143/1 48/48/1 96/96/1 173/173/1
f 3/3/1 83/83/1 174/174/1 114/114/1
f 114/114/1 174/174/1 129/129/1 2/2/1
f 174/174/1 130/130/1 34/34/1 129/129/1
f 83/83/1 35/35/1 130/130/1 174/174/1
f 30/30/1 157/157/1 175/175/1 79/79/1
f 79/79/1 175/175/1 109/109/1 29/29/1
f 175/175/1 110/110/1 61/61/1 109/109/1
f 157/157/1 62/62/1 110/110/1 175/175/1
f 17/17/1 97/97/1 176/176/1 121/121/1
f 121/121/1 176/176/1 143/143/1 16/16/1
f 176/176/1 144/144/1 48/48/1 143/143/1
f 97/97/1 49/49/1 144/144/1 176/176/1
f 4/4/1 131/131/1 177/177/1 66/66/1
f 66/66/1 177/177/1 83/83/1 3/3/1
f 177/177/1 84/84/1 35/35/1 83/83/1
f 131/131/1 36/36/1 84/84/1 177/177/1
f 31/31/1 111/111/1 178/178/1 128/128/1
f 128/128/1 178/178/1 157/157/1 30/30/1
f 178/178/1 158/158/1 62/62/1 157/157/1
f 111/111/1 63/63/1 158/158/1 178/178/1
f 18/18/1 145/145/1 179/179/1 73/73/1
f 73/73/1 179/179/1 97/97/1 17/17/1
f 179/179/1 98/98/1 49/49/1 97/97/1
f 145/145/1 50/50/1 98/98/1 179/179/1
f 5/5/1 85/85/1 180/180/1 115/115/1
f 115/115/1 180/180/1 131/131/1 4/4/1
f 180/180/1 132/132/1 36/36/1 131/131/1
f 85/85/1 37/37/1 132/132/1 180/180/1
f 32/32/1 159/159/1 181/181/1 80/80/1
f 80/80/1 181/181/1 111/111/1 31/31/1
f 181/181/1 160/160/1 63/63/1 111/111/1
f 159/159/1 64/64/1 160/160/1 181/181/1
f 19/19/1 99/99/1 182/182/1 122/122/1
f 122/122/1 182/182/1 145/145/1 18/18/1
f 182/182/1 146/146/1 50/50/1 145/145/1
f 99/99/1 51/51/1 146/146/1 182/182/1
f 6/6/1 133/133/1 183/183/1 67/67/1
f 67/67/1 183/183/1 85/85/1 5/5/1
f 183/183/1 86/86/1 37/37/1 85/85/1
f 133/133/1 38/38/1 86/86/1 183/183/1
f 1/1/1 81/81/1 184/184/1 113/113/1
f 113/113/1 184/184/1 159/159/1 32/32/1
f 184/184/1 112/112/1 64/64/1 159/159/1
f 81/81/1 33/33/1 112/112/1 184/184/1
f 20/20/1 147/147/1 185/185/1 74/74/1
f 74/74/1 185/185/1 99/99/1 19/19/1
f 185/185/1 100/100/1 51/51/1 99/99/1
f 147/147/1 52/52/1 100/100/1 185/185/1
f 7/7/1 87/87/1 186/186/1 116/116/1
f 116/116/1 186/186/1 133/133/1 6/6/1
f 186/186/1 134/134/1 38/38/1 133/133/1
f 87/87/1 39/39/1 134/134/1 186/186/1
f 21/21/1 101/101/1 187/187/1 123/123/1
f 123/123/1 187/187/1 147/147/1 20/20/1
f 187/187/1 148/148/1 52/52/1 147/147/1
f 101/101/1 53/53/1 148/148/1 187/187/1
f 8/8/1 135/135/1 188/188/1 68/68/1
f 68/68/1 188/188/1 87/87/1 7/7/1
f 188/188/1 88/88/1 39/39/1 87/87/1
f 135/135/1 40/40/1 88/88/1 188/188/1
f 22/22/1 149/149/1 189/189/1 75/75/1
f 75/75/1 189/189/1 101/101/1 21/21/1
f 189/189/1 102/102/1 53/53/1 101/101/1
f 149/149/1 54/54/1 102/102/1 189/189/1
f 9/9/1 89/89/1 190/190/1 117/117/1
f 117/117/1 190/190/1 135/135/1 8/8/1
f 190/190/1 136/136/1 40/40/1 135/135/1
f 89/89/1 41/41/1 136/136/1 190/190/1
f 23/23/1 103/103/1 191/191/1 124/124/1
f 124/124/1 191/191/1 149/149/1 22/22/1
f 191/191/1 150/150/1 54/54/1 149/149/1
f 103/103/1 55/55/1 150/150/1 191/191/1
f 10/10/1 137/137/1 192/192/1 69/69/1
f 69/69/1 192/192/1 89/89/1 9/9/1
f 192/192/1 90/90/1 41/41/1 89/89/1
f 137/137/1 42/42/1 90/90/1 192/192/1
