# Blender 3.3.1
# www.blender.org
o Day_Night_Circle_Inner
v -0.000436 -0.006405 -0.992694
v -0.196221 -0.006405 -0.973412
v -0.384484 -0.006405 -0.916302
v -0.557987 -0.006405 -0.823563
v -0.710063 -0.006405 -0.698756
v -0.834870 -0.006405 -0.546680
v -0.927609 -0.006405 -0.373177
v -0.984719 -0.006405 -0.184915
v -1.004001 -0.006405 0.010871
v -0.984719 -0.006405 0.206656
v -0.927609 -0.006405 0.394919
v -0.834870 -0.006405 0.568423
v -0.710063 -0.006405 0.720498
v -0.557987 -0.006405 0.845305
v -0.384484 -0.006405 0.938044
v -0.196221 -0.006405 0.995153
v -0.000436 -0.006405 1.014437
v 0.195349 -0.006405 0.995153
v 0.383612 -0.006405 0.938044
v 0.557115 -0.006405 0.845305
v 0.709193 -0.006405 0.720498
v 0.833998 -0.006405 0.568423
v 0.926737 -0.006405 0.394919
v 0.983846 -0.006405 0.206656
v 1.003129 -0.006405 0.010871
v 0.983846 -0.006405 -0.184915
v 0.926737 -0.006405 -0.373177
v 0.833998 -0.006405 -0.546680
v 0.709193 -0.006405 -0.698756
v 0.557115 -0.006405 -0.823563
v 0.383612 -0.006405 -0.916302
v 0.195349 -0.006405 -0.973412
v -0.000436 -0.006405 -0.845195
v -0.167446 -0.006405 -0.828746
v -0.328038 -0.006405 -0.780031
v -0.476041 -0.006405 -0.700922
v -0.605766 -0.006405 -0.594459
v -0.712229 -0.006405 -0.464734
v -0.791338 -0.006405 -0.316731
v -0.840053 -0.006405 -0.156140
v -0.856502 -0.006405 0.010871
v -0.840053 -0.006405 0.177881
v -0.791338 -0.006405 0.338473
v -0.712229 -0.006405 0.486477
v -0.605766 -0.006405 0.616201
v -0.476041 -0.006405 0.722664
v -0.328038 -0.006405 0.801773
v -0.167446 -0.006405 0.850488
v -0.000436 -0.006405 0.866938
v 0.166574 -0.006405 0.850488
v 0.327166 -0.006405 0.801773
v 0.475169 -0.006405 0.722664
v 0.604895 -0.006405 0.616201
v 0.711357 -0.006405 0.486477
v 0.790466 -0.006405 0.338473
v 0.839181 -0.006405 0.177881
v 0.855630 -0.006405 0.010871
v 0.839181 -0.006405 -0.156140
v 0.790466 -0.006405 -0.316731
v 0.711357 -0.006405 -0.464734
v 0.604895 -0.006405 -0.594459
v 0.475169 -0.006405 -0.700922
v 0.327166 -0.006405 -0.780031
v 0.166574 -0.006405 -0.828746
vn -0.0000 1.0000 -0.0000
vt 0.000000 0.000000
vt 0.000000 0.000000
vt 0.000000 0.000000
vt 0.000000 0.000000
vt 0.000000 0.000000
vt 0.000000 0.000000
vt 0.000000 0.000000
vt 0.000000 0.000000
vt 0.000000 0.000000
vt 0.000000 0.000000
vt 0.000000 0.000000
vt 0.000000 0.000000
vt 0.000000 0.000000
vt 0.000000 0.000000
vt 0.000000 0.000000
vt 0.000000 0.000000
vt 0.000000 0.000000
vt 0.000000 0.000000
vt 0.000000 0.000000
vt 0.000000 0.000000
vt 0.000000 0.000000
vt 0.000000 0.000000
vt 0.000000 0.000000
vt 0.000000 0.000000
vt 0.000000 0.000000
vt 0.000000 0.000000
vt 0.000000 0.000000
vt 0.000000 0.000000
vt 0.000000 0.000000
vt 0.000000 0.000000
vt 0.000000 0.000000
vt 0.000000 0.000000
vt 0.000000 0.000000
vt 0.000000 0.000000
vt 0.000000 0.000000
vt 0.000000 0.000000
vt 0.000000 0.000000
vt 0.000000 0.000000
vt 0.000000 0.000000
vt 0.000000 0.000000
vt 0.000000 0.000000
vt 0.000000 0.000000
vt 0.000000 0.000000
vt 0.000000 0.000000
vt 0.000000 0.000000
vt 0.000000 0.000000
vt 0.000000 0.000000
vt 0.000000 0.000000
vt 0.000000 0.000000
vt 0.000000 0.000000
vt 0.000000 0.000000
vt 0.000000 0.000000
vt 0.000000 0.000000
vt 0.000000 0.000000
vt 0.000000 0.000000
vt 0.000000 0.000000
vt 0.000000 0.000000
vt 0.000000 0.000000
vt 0.000000 0.000000
vt 0.000000 0.000000
vt 0.000000 0.000000
vt 0.000000 0.000000
vt 0.000000 0.000000
vt 0.000000 0.000000
s 0
f 12/12/1 13/13/1 45/45/1 44/44/1
f 17/17/1 18/18/1 50/50/1 49/49/1
f 14/14/1 15/15/1 47/47/1 46/46/1
f 19/19/1 20/20/1 52/52/1 51/51/1
f 16/16/1 17/17/1 49/49/1 48/48/1
f 21/21/1 22/22/1 54/54/1 53/53/1
f 18/18/1 19/19/1 51/51/1 50/50/1
f 23/23/1 24/24/1 56/56/1 55/55/1
f 20/20/1 21/21/1 53/53/1 52/52/1
f 25/25/1 26/26/1 58/58/1 57/57/1
f 22/22/1 23/23/1 55/55/1 54/54/1
f 27/27/1 28/28/1 60/60/1 59/59/1
f 1/1/1 2/2/1 34/34/1 33/33/1
f 24/24/1 25/25/1 57/57/1 56/56/1
f 29/29/1 30/30/1 62/62/1 61/61/1
f 3/3/1 4/4/1 36/36/1 35/35/1
f 26/26/1 27/27/1 59/59/1 58/58/1
f 32/32/1 1/1/1 33/33/1 64/64/1
f 5/5/1 6/6/1 38/38/1 37/37/1
f 28/28/1 29/29/1 61/61/1 60/60/1
f 2/2/1 3/3/1 35/35/1 34/34/1
f 7/7/1 8/8/1 40/40/1 39/39/1
f 30/30/1 31/31/1 63/63/1 62/62/1
f 4/4/1 5/5/1 37/37/1 36/36/1
f 9/9/1 10/10/1 42/42/1 41/41/1
f 31/31/1 32/32/1 64/64/1 63/63/1
f 6/6/1 7/7/1 39/39/1 38/38/1
f 11/11/1 12/12/1 44/44/1 43/43/1
f 8/8/1 9/9/1 41/41/1 40/40/1
f 13/13/1 14/14/1 46/46/1 45/45/1
f 10/10/1 11/11/1 43/43/1 42/42/1
f 15/15/1 16/16/1 48/48/1 47/47/1
