# Blender 3.3.1
# www.blender.org
mtllib test_proj.mtl
o Circle.001
v -3.000000 0.000000 -1.105799
v -3.215730 0.000000 -1.084551
v -3.423171 0.000000 -1.021625
v -3.614349 0.000000 -0.919438
v -3.781917 0.000000 -0.781918
v -3.919438 0.000000 -0.614349
v -4.021625 0.000000 -0.423171
v -4.084551 0.000000 -0.215731
v -4.105799 0.000000 -0.000000
v -4.084551 0.000000 0.215730
v -4.021625 0.000000 0.423171
v -3.919438 0.000000 0.614349
v -3.781917 0.000000 0.781918
v -3.614349 0.000000 0.919438
v -3.423171 0.000000 1.021625
v -3.215730 0.000000 1.084551
v -3.000000 0.000000 1.105799
v -2.784269 0.000000 1.084551
v -2.576829 0.000000 1.021625
v -2.385651 0.000000 0.919438
v -2.218082 0.000000 0.781918
v -2.080562 0.000000 0.614349
v -1.978375 0.000000 0.423171
v -1.915449 0.000000 0.215730
v -1.894201 0.000000 -0.000000
v -1.915449 0.000000 -0.215731
v -1.978375 0.000000 -0.423171
v -2.080562 0.000000 -0.614349
v -2.218082 0.000000 -0.781918
v -2.385651 0.000000 -0.919438
v -2.576829 0.000000 -1.021625
v -2.784269 0.000000 -1.084551
v -3.000000 0.000000 -0.938204
v -3.183034 0.000000 -0.920177
v -3.359035 0.000000 -0.866787
v -3.521238 0.000000 -0.780088
v -3.663410 0.000000 -0.663410
v -3.780088 0.000000 -0.521238
v -3.866787 0.000000 -0.359035
v -3.920177 0.000000 -0.183035
v -3.938204 0.000000 -0.000000
v -3.920177 0.000000 0.183034
v -3.866787 0.000000 0.359035
v -3.780088 0.000000 0.521239
v -3.663410 0.000000 0.663410
v -3.521238 0.000000 0.780088
v -3.359035 0.000000 0.866787
v -3.183034 0.000000 0.920177
v -3.000000 0.000000 0.938205
v -2.816966 0.000000 0.920177
v -2.640965 0.000000 0.866787
v -2.478762 0.000000 0.780088
v -2.336589 0.000000 0.663410
v -2.219912 0.000000 0.521239
v -2.133213 0.000000 0.359035
v -2.079823 0.000000 0.183034
v -2.061796 0.000000 -0.000000
v -2.079823 0.000000 -0.183035
v -2.133213 0.000000 -0.359035
v -2.219912 0.000000 -0.521238
v -2.336589 0.000000 -0.663410
v -2.478762 0.000000 -0.780088
v -2.640965 0.000000 -0.866787
v -2.816966 0.000000 -0.920177
vn -0.0000 -1.0000 -0.0000
vt 0.000000 0.000000
vt 0.000000 0.000000
vt 0.000000 0.000000
vt 0.000000 0.000000
vt 0.000000 0.000000
vt 0.000000 0.000000
vt 0.000000 0.000000
vt 0.000000 0.000000
vt 0.000000 0.000000
vt 0.000000 0.000000
vt 0.000000 0.000000
vt 0.000000 0.000000
vt 0.000000 0.000000
vt 0.000000 0.000000
vt 0.000000 0.000000
vt 0.000000 0.000000
vt 0.000000 0.000000
vt 0.000000 0.000000
vt 0.000000 0.000000
vt 0.000000 0.000000
vt 0.000000 0.000000
vt 0.000000 0.000000
vt 0.000000 0.000000
vt 0.000000 0.000000
vt 0.000000 0.000000
vt 0.000000 0.000000
vt 0.000000 0.000000
vt 0.000000 0.000000
vt 0.000000 0.000000
vt 0.000000 0.000000
vt 0.000000 0.000000
vt 0.000000 0.000000
vt 0.000000 0.000000
vt 0.000000 0.000000
vt 0.000000 0.000000
vt 0.000000 0.000000
vt 0.000000 0.000000
vt 0.000000 0.000000
vt 0.000000 0.000000
vt 0.000000 0.000000
vt 0.000000 0.000000
vt 0.000000 0.000000
vt 0.000000 0.000000
vt 0.000000 0.000000
vt 0.000000 0.000000
vt 0.000000 0.000000
vt 0.000000 0.000000
vt 0.000000 0.000000
vt 0.000000 0.000000
vt 0.000000 0.000000
vt 0.000000 0.000000
vt 0.000000 0.000000
vt 0.000000 0.000000
vt 0.000000 0.000000
vt 0.000000 0.000000
vt 0.000000 0.000000
vt 0.000000 0.000000
vt 0.000000 0.000000
vt 0.000000 0.000000
vt 0.000000 0.000000
vt 0.000000 0.000000
vt 0.000000 0.000000
vt 0.000000 0.000000
vt 0.000000 0.000000
s 0
f 24/24/1 23/23/1 55/55/1 56/56/1
f 11/11/1 10/10/1 42/42/1 43/43/1
f 25/25/1 24/24/1 56/56/1 57/57/1
f 12/12/1 11/11/1 43/43/1 44/44/1
f 26/26/1 25/25/1 57/57/1 58/58/1
f 13/13/1 12/12/1 44/44/1 45/45/1
f 27/27/1 26/26/1 58/58/1 59/59/1
f 14/14/1 13/13/1 45/45/1 46/46/1
f 28/28/1 27/27/1 59/59/1 60/60/1
f 15/15/1 14/14/1 46/46/1 47/47/1
f 2/2/1 1/1/1 33/33/1 34/34/1
f 29/29/1 28/28/1 60/60/1 61/61/1
f 16/16/1 15/15/1 47/47/1 48/48/1
f 3/3/1 2/2/1 34/34/1 35/35/1
f 30/30/1 29/29/1 61/61/1 62/62/1
f 17/17/1 16/16/1 48/48/1 49/49/1
f 4/4/1 3/3/1 35/35/1 36/36/1
f 31/31/1 30/30/1 62/62/1 63/63/1
f 18/18/1 17/17/1 49/49/1 50/50/1
f 5/5/1 4/4/1 36/36/1 37/37/1
f 32/32/1 31/31/1 63/63/1 64/64/1
f 19/19/1 18/18/1 50/50/1 51/51/1
f 6/6/1 5/5/1 37/37/1 38/38/1
f 1/1/1 32/32/1 64/64/1 33/33/1
f 20/20/1 19/19/1 51/51/1 52/52/1
f 7/7/1 6/6/1 38/38/1 39/39/1
f 21/21/1 20/20/1 52/52/1 53/53/1
f 8/8/1 7/7/1 39/39/1 40/40/1
f 22/22/1 21/21/1 53/53/1 54/54/1
f 9/9/1 8/8/1 40/40/1 41/41/1
f 23/23/1 22/22/1 54/54/1 55/55/1
f 10/10/1 9/9/1 41/41/1 42/42/1
